HIERARCHY
ROOT mixamorig:Hips
{
	OFFSET -0.000008 104.274872 1.554316
	CHANNELS 6 Xposition Yposition Zposition Xrotation Yrotation Zrotation
	JOINT mixamorig:Spine
	{
		OFFSET -0.000005 10.181595 0.131519
		CHANNELS 6 Xposition Yposition Zposition Xrotation Yrotation Zrotation
		JOINT mixamorig:Spine1
		{
			OFFSET -0.000000 9.893959 -1.470707
			CHANNELS 6 Xposition Yposition Zposition Xrotation Yrotation Zrotation
			JOINT mixamorig:Spine2
			{
				OFFSET -0.000000 9.220757 -1.370641
				CHANNELS 6 Xposition Yposition Zposition Xrotation Yrotation Zrotation
				JOINT mixamorig:Neck
				{
					OFFSET 0.000001 16.740417 -2.049036
					CHANNELS 6 Xposition Yposition Zposition Xrotation Yrotation Zrotation
					JOINT mixamorig:Head
					{
						OFFSET 0.000000 9.617874 1.685006
						CHANNELS 6 Xposition Yposition Zposition Xrotation Yrotation Zrotation
						JOINT mixamorig:HeadTop_End
						{
							OFFSET 0.000002 22.037354 7.501101
							CHANNELS 6 Xposition Yposition Zposition Xrotation Yrotation Zrotation
							End Site
							{
								OFFSET 0.000168 2310.654297 -282.823242
							}
						}
					}
				}
				JOINT mixamorig:RightShoulder
				{
					OFFSET -4.569970 11.014908 -2.160885
					CHANNELS 6 Xposition Yposition Zposition Xrotation Yrotation Zrotation
					JOINT mixamorig:RightArm
					{
						OFFSET -10.592851 -0.524811 -2.232101
						CHANNELS 6 Xposition Yposition Zposition Xrotation Yrotation Zrotation
						JOINT mixamorig:RightForeArm
						{
							OFFSET -27.841511 0.000031 -0.000004
							CHANNELS 6 Xposition Yposition Zposition Xrotation Yrotation Zrotation
							JOINT mixamorig:RightHand
							{
								OFFSET -28.328831 -0.000015 0.000015
								CHANNELS 6 Xposition Yposition Zposition Xrotation Yrotation Zrotation
								JOINT mixamorig:RightHandThumb1
								{
									OFFSET -2.464806 -1.573990 2.681852
									CHANNELS 6 Xposition Yposition Zposition Xrotation Yrotation Zrotation
									JOINT mixamorig:RightHandThumb2
									{
										OFFSET -3.215179 -1.872803 1.924282
										CHANNELS 6 Xposition Yposition Zposition Xrotation Yrotation Zrotation
										JOINT mixamorig:RightHandThumb3
										{
											OFFSET -2.654831 -1.527969 1.512609
											CHANNELS 6 Xposition Yposition Zposition Xrotation Yrotation Zrotation
											JOINT mixamorig:RightHandThumb4
											{
												OFFSET -2.018814 -1.152008 1.108052
												CHANNELS 6 Xposition Yposition Zposition Xrotation Yrotation Zrotation
												End Site
												{
													OFFSET -188.809540 -114.533607 132.431396
												}
											}
										}
									}
								}
								JOINT mixamorig:RightHandIndex1
								{
									OFFSET -9.108284 -0.517868 2.259835
									CHANNELS 6 Xposition Yposition Zposition Xrotation Yrotation Zrotation
									JOINT mixamorig:RightHandIndex2
									{
										OFFSET -3.699989 0.000000 0.001215
										CHANNELS 6 Xposition Yposition Zposition Xrotation Yrotation Zrotation
										JOINT mixamorig:RightHandIndex3
										{
											OFFSET -2.850006 0.000031 -0.000522
											CHANNELS 6 Xposition Yposition Zposition Xrotation Yrotation Zrotation
											JOINT mixamorig:RightHandIndex4
											{
												OFFSET -2.772186 -0.000015 -0.000020
												CHANNELS 6 Xposition Yposition Zposition Xrotation Yrotation Zrotation
												End Site
												{
													OFFSET -277.218445 0.000000 -0.050231
												}
											}
										}
									}
								}
								JOINT mixamorig:RightHandMiddle1
								{
									OFFSET -9.532516 -0.000031 -0.000023
									CHANNELS 6 Xposition Yposition Zposition Xrotation Yrotation Zrotation
									JOINT mixamorig:RightHandMiddle2
									{
										OFFSET -3.700005 -0.000015 0.003713
										CHANNELS 6 Xposition Yposition Zposition Xrotation Yrotation Zrotation
										JOINT mixamorig:RightHandMiddle3
										{
											OFFSET -2.949974 0.000015 -0.002054
											CHANNELS 6 Xposition Yposition Zposition Xrotation Yrotation Zrotation
											JOINT mixamorig:RightHandMiddle4
											{
												OFFSET -2.946640 0.000000 -0.000156
												CHANNELS 6 Xposition Yposition Zposition Xrotation Yrotation Zrotation
												End Site
												{
													OFFSET -294.664337 0.000000 -0.113670
												}
											}
										}
									}
								}
								JOINT mixamorig:RightHandRing1
								{
									OFFSET -9.103600 -0.043076 -1.865134
									CHANNELS 6 Xposition Yposition Zposition Xrotation Yrotation Zrotation
									JOINT mixamorig:RightHandRing2
									{
										OFFSET -3.379288 0.000000 -0.001055
										CHANNELS 6 Xposition Yposition Zposition Xrotation Yrotation Zrotation
										JOINT mixamorig:RightHandRing3
										{
											OFFSET -2.889687 -0.000015 0.000379
											CHANNELS 6 Xposition Yposition Zposition Xrotation Yrotation Zrotation
											JOINT mixamorig:RightHandRing4
											{
												OFFSET -2.638809 -0.000015 0.000941
												CHANNELS 6 Xposition Yposition Zposition Xrotation Yrotation Zrotation
												End Site
												{
													OFFSET -263.880371 0.000000 0.516020
												}
											}
										}
									}
								}
								JOINT mixamorig:RightHandPinky1
								{
									OFFSET -8.076683 -0.486710 -3.806280
									CHANNELS 6 Xposition Yposition Zposition Xrotation Yrotation Zrotation
									JOINT mixamorig:RightHandPinky2
									{
										OFFSET -3.600014 -0.000015 -0.003747
										CHANNELS 6 Xposition Yposition Zposition Xrotation Yrotation Zrotation
										JOINT mixamorig:RightHandPinky3
										{
											OFFSET -2.099983 0.000000 -0.005739
											CHANNELS 6 Xposition Yposition Zposition Xrotation Yrotation Zrotation
											JOINT mixamorig:RightHandPinky4
											{
												OFFSET -2.115768 -0.000031 -0.003680
												CHANNELS 6 Xposition Yposition Zposition Xrotation Yrotation Zrotation
												End Site
												{
													OFFSET -211.577087 0.000000 -0.350686
												}
											}
										}
									}
								}
							}
						}
					}
				}
				JOINT mixamorig:LeftShoulder
				{
					OFFSET 4.570447 11.014725 -2.160855
					CHANNELS 6 Xposition Yposition Zposition Xrotation Yrotation Zrotation
					JOINT mixamorig:LeftArm
					{
						OFFSET 10.592371 -0.524597 -2.232119
						CHANNELS 6 Xposition Yposition Zposition Xrotation Yrotation Zrotation
						JOINT mixamorig:LeftForeArm
						{
							OFFSET 27.841532 -0.000031 0.000026
							CHANNELS 6 Xposition Yposition Zposition Xrotation Yrotation Zrotation
							JOINT mixamorig:LeftHand
							{
								OFFSET 28.328846 -0.000061 0.000022
								CHANNELS 6 Xposition Yposition Zposition Xrotation Yrotation Zrotation
								JOINT mixamorig:LeftHandThumb1
								{
									OFFSET 2.466141 -1.576172 2.681732
									CHANNELS 6 Xposition Yposition Zposition Xrotation Yrotation Zrotation
									JOINT mixamorig:LeftHandThumb2
									{
										OFFSET 3.217812 -1.872070 1.916482
										CHANNELS 6 Xposition Yposition Zposition Xrotation Yrotation Zrotation
										JOINT mixamorig:LeftHandThumb3
										{
											OFFSET 2.656029 -1.528778 1.514513
											CHANNELS 6 Xposition Yposition Zposition Xrotation Yrotation Zrotation
											JOINT mixamorig:LeftHandThumb4
											{
												OFFSET 2.020889 -1.154053 1.115139
												CHANNELS 6 Xposition Yposition Zposition Xrotation Yrotation Zrotation
												End Site
												{
													OFFSET 190.885437 -115.081749 130.048782
												}
											}
										}
									}
								}
								JOINT mixamorig:LeftHandIndex1
								{
									OFFSET 9.109314 -0.518021 2.259871
									CHANNELS 6 Xposition Yposition Zposition Xrotation Yrotation Zrotation
									JOINT mixamorig:LeftHandIndex2
									{
										OFFSET 3.699989 0.000000 -0.000322
										CHANNELS 6 Xposition Yposition Zposition Xrotation Yrotation Zrotation
										JOINT mixamorig:LeftHandIndex3
										{
											OFFSET 2.850006 0.000000 0.000352
											CHANNELS 6 Xposition Yposition Zposition Xrotation Yrotation Zrotation
											JOINT mixamorig:LeftHandIndex4
											{
												OFFSET 2.774864 -0.000031 -0.000027
												CHANNELS 6 Xposition Yposition Zposition Xrotation Yrotation Zrotation
												End Site
												{
													OFFSET 277.486267 0.000000 -0.009857
												}
											}
										}
									}
								}
								JOINT mixamorig:LeftHandMiddle1
								{
									OFFSET 9.533394 0.000061 0.000044
									CHANNELS 6 Xposition Yposition Zposition Xrotation Yrotation Zrotation
									JOINT mixamorig:LeftHandMiddle2
									{
										OFFSET 3.699989 -0.000015 -0.000231
										CHANNELS 6 Xposition Yposition Zposition Xrotation Yrotation Zrotation
										JOINT mixamorig:LeftHandMiddle3
										{
											OFFSET 2.949997 -0.000015 -0.000059
											CHANNELS 6 Xposition Yposition Zposition Xrotation Yrotation Zrotation
											JOINT mixamorig:LeftHandMiddle4
											{
												OFFSET 2.952896 0.000031 0.000063
												CHANNELS 6 Xposition Yposition Zposition Xrotation Yrotation Zrotation
												End Site
												{
													OFFSET 295.289337 0.000000 0.022810
												}
											}
										}
									}
								}
								JOINT mixamorig:LeftHandRing1
								{
									OFFSET 9.104523 -0.042999 -1.865074
									CHANNELS 6 Xposition Yposition Zposition Xrotation Yrotation Zrotation
									JOINT mixamorig:LeftHandRing2
									{
										OFFSET 3.150009 -0.000031 0.000043
										CHANNELS 6 Xposition Yposition Zposition Xrotation Yrotation Zrotation
										JOINT mixamorig:LeftHandRing3
										{
											OFFSET 2.949982 -0.000015 0.000040
											CHANNELS 6 Xposition Yposition Zposition Xrotation Yrotation Zrotation
											JOINT mixamorig:LeftHandRing4
											{
												OFFSET 2.644348 0.000000 0.000057
												CHANNELS 6 Xposition Yposition Zposition Xrotation Yrotation Zrotation
												End Site
												{
													OFFSET 264.434631 0.000000 0.012105
												}
											}
										}
									}
								}
								JOINT mixamorig:LeftHandPinky1
								{
									OFFSET 8.077789 -0.486847 -3.806259
									CHANNELS 6 Xposition Yposition Zposition Xrotation Yrotation Zrotation
									JOINT mixamorig:LeftHandPinky2
									{
										OFFSET 3.599953 0.000031 0.014727
										CHANNELS 6 Xposition Yposition Zposition Xrotation Yrotation Zrotation
										JOINT mixamorig:LeftHandPinky3
										{
											OFFSET 2.100021 0.000015 0.007705
											CHANNELS 6 Xposition Yposition Zposition Xrotation Yrotation Zrotation
											JOINT mixamorig:LeftHandPinky4
											{
												OFFSET 2.125504 0.000031 0.007517
												CHANNELS 6 Xposition Yposition Zposition Xrotation Yrotation Zrotation
												End Site
												{
													OFFSET 212.550781 0.000000 0.625752
												}
											}
										}
									}
								}
							}
						}
					}
				}
			}
		}
	}
	JOINT mixamorig:RightUpLeg
	{
		OFFSET -8.207787 -6.751648 -1.599560
		CHANNELS 6 Xposition Yposition Zposition Xrotation Yrotation Zrotation
		JOINT mixamorig:RightLeg
		{
			OFFSET -0.000002 -44.370117 0.345942
			CHANNELS 6 Xposition Yposition Zposition Xrotation Yrotation Zrotation
			JOINT mixamorig:RightFoot
			{
				OFFSET 0.000003 -44.423679 -3.043532
				CHANNELS 6 Xposition Yposition Zposition Xrotation Yrotation Zrotation
				JOINT mixamorig:RightToeBase
				{
					OFFSET -0.000002 -8.728671 10.710558
					CHANNELS 6 Xposition Yposition Zposition Xrotation Yrotation Zrotation
					JOINT mixamorig:RightToe_End
					{
						OFFSET -0.000001 -0.000679 9.278119
						CHANNELS 6 Xposition Yposition Zposition Xrotation Yrotation Zrotation
						End Site
						{
							OFFSET 0.000000 -0.067690 927.812134
						}
					}
				}
			}
		}
	}
	JOINT mixamorig:LeftUpLeg
	{
		OFFSET 8.207793 -6.751686 -1.599556
		CHANNELS 6 Xposition Yposition Zposition Xrotation Yrotation Zrotation
		JOINT mixamorig:LeftLeg
		{
			OFFSET -0.000004 -44.370014 0.346954
			CHANNELS 6 Xposition Yposition Zposition Xrotation Yrotation Zrotation
			JOINT mixamorig:LeftFoot
			{
				OFFSET -0.000001 -44.423672 -3.044401
				CHANNELS 6 Xposition Yposition Zposition Xrotation Yrotation Zrotation
				JOINT mixamorig:LeftToeBase
				{
					OFFSET -0.000002 -8.728669 10.710558
					CHANNELS 6 Xposition Yposition Zposition Xrotation Yrotation Zrotation
					JOINT mixamorig:LeftToe_End
					{
						OFFSET -0.000003 -0.000679 9.278133
						CHANNELS 6 Xposition Yposition Zposition Xrotation Yrotation Zrotation
						End Site
						{
							OFFSET 0.000000 -0.068021 927.813477
						}
					}
				}
			}
		}
	}
}
MOTION
Frames: 3
Frame Time: 0.033333
0.000006 104.270477 1.554256 0.000010 0.000003 -0.000113 -0.000005 10.181587 0.131522 0.000001 -0.000003 0.000084 -0.000000 9.893967 -1.470711 0.000001 0.000000 -0.000000 -0.000000 9.220802 -1.370642 0.000000 -0.000000 -0.000000 0.000001 16.740433 -2.049030 0.000000 -0.000000 -0.000000 0.000000 9.617859 1.685014 0.000000 0.000000 0.000000 0.000002 22.037384 7.501101 0.000000 -0.000000 0.000000 -4.569968 11.014880 -2.160881 0.000008 0.000001 -0.000038 -10.592813 -0.524830 -2.231769 69.868450 58.805040 -42.971582 -27.841452 0.000028 0.000614 204.466139 70.853555 -213.900570 -28.328838 0.000021 0.000024 -0.000319 -0.000044 0.000008 -2.464498 -1.574197 2.682159 64.927642 -125.941735 119.324484 -3.214725 -1.872862 1.924720 168.090218 -44.322341 222.167298 -2.654470 -1.527742 1.513040 127.995354 -9.340174 146.109153 -2.018831 -1.152015 1.108062 -0.000001 0.000001 0.000004 -9.108294 -0.517825 2.260389 166.577358 9.422572 -70.376985 -3.699598 0.000023 0.001749 180.204351 -7.218961 182.898942 -2.849757 -0.000116 -0.000433 309.070623 -53.120382 333.218183 -2.772171 -0.000016 -0.000014 0.000001 -0.000000 -0.000000 -9.532555 0.000016 0.000513 164.956773 7.261813 -52.391284 -3.699728 -0.000158 0.004196 196.095687 -25.187673 244.244259 -2.949769 -0.000186 -0.001951 303.036342 -46.898773 333.508712 -2.946622 0.000001 -0.000161 -0.000001 0.000000 -0.000001 -9.103651 -0.042874 -1.864597 162.945651 3.766983 -24.463583 -3.379023 -0.000242 -0.000652 219.585227 -36.879040 -85.586129 -2.889476 -0.000222 0.000511 288.759634 -44.732657 -32.806515 -2.638815 -0.000016 0.000938 0.000000 -0.000000 -0.000001 -8.076661 -0.486429 -3.805765 159.519396 -0.614701 4.046610 -3.599735 -0.000239 -0.003294 206.470594 -29.612357 262.081790 -2.099688 -0.000284 -0.005532 260.102510 -43.399333 -50.985590 -2.115767 -0.000057 -0.003697 -0.000004 -0.000000 -0.000003 4.570446 11.014691 -2.160851 -0.000018 0.000010 -0.000021 10.592473 -0.524563 -2.232350 37.610949 -59.775234 22.147763 27.841772 -0.000079 -0.000104 33.491621 -108.502445 45.367585 28.328827 -0.000027 0.000023 0.000025 -0.000090 -0.000001 2.465854 -1.575884 2.681714 -62.106603 193.477348 91.848293 3.217448 -1.871833 1.916523 304.039970 184.207688 412.805514 2.655997 -1.528447 1.514418 159.274383 -32.181396 -4.098157 2.020887 -1.154070 1.115144 -0.000000 0.000003 0.000004 9.109426 -0.517808 2.259794 128.336782 -18.675868 37.496813 3.700097 0.000193 -0.000432 115.865212 -23.507425 36.772256 2.850088 0.000213 0.000247 107.857928 -18.512640 25.220320 2.774877 -0.000049 -0.000031 -0.000001 0.000006 0.000001 9.533516 0.000280 -0.000002 141.608427 -15.957769 43.833552 3.700100 0.000229 -0.000306 134.080083 -17.591955 40.122328 2.950109 0.000250 -0.000123 129.886320 -15.145593 31.754277 2.952871 -0.000029 0.000062 -0.000001 0.000000 0.000001 9.104671 -0.042809 -1.865104 152.106059 -15.954099 58.876552 3.150113 0.000199 0.000031 147.639511 -15.339867 49.802051 2.950065 0.000207 0.000031 148.340944 -12.283570 41.572722 2.644325 0.000030 0.000067 0.000001 0.000002 -0.000000 8.077898 -0.486802 -3.806244 161.494687 -21.245573 -259.300318 3.600095 0.000205 0.014761 162.572190 -11.031737 67.664095 2.100122 0.000263 0.007719 162.714203 -8.126613 53.350737 2.125518 -0.000043 0.007521 -0.000004 -0.000004 0.000000 -8.207786 -6.751667 -1.599560 -0.077001 -0.000003 0.000080 -0.000002 -44.370110 0.345938 0.153719 -0.000000 -0.000000 0.000000 -44.423679 -3.043532 -0.076700 0.000000 -0.000002 -0.000006 -8.728667 10.710559 -0.000009 -0.000000 -0.000000 -0.000001 -0.000679 9.278123 0.000000 -0.000000 -0.000000 8.207792 -6.751710 -1.599556 -0.074518 -0.000003 0.000081 -0.000002 -44.370014 0.346960 0.148822 0.000002 0.000000 -0.000001 -44.423664 -3.044403 -0.074314 0.000000 -0.000002 -0.000004 -8.728671 10.710558 0.000007 -0.000000 -0.000000 0.000000 -0.000680 9.278137 -0.000000 0.000000 -0.000001 
0.000006 104.270477 1.554256 0.000010 0.000003 -0.000113 -0.000005 10.181587 0.131522 0.000001 -0.000003 0.000084 -0.000000 9.893967 -1.470711 0.000001 0.000000 -0.000000 -0.000000 9.220802 -1.370642 0.000000 -0.000000 -0.000000 0.000001 16.740433 -2.049030 0.000000 -0.000000 -0.000000 0.000000 9.617859 1.685014 0.000000 0.000000 0.000000 0.000002 22.037384 7.501101 0.000000 -0.000000 0.000000 -4.569968 11.014880 -2.160881 0.000008 0.000001 -0.000038 -10.592812 -0.524839 -2.231771 70.034970 59.050387 -43.288612 -27.841448 0.000010 0.000605 204.654242 71.024692 -214.052309 -28.328836 0.000005 0.000024 -0.000322 -0.000046 0.000007 -2.464474 -1.574192 2.682154 67.998945 -120.776896 119.290729 -3.214731 -1.872857 1.924716 165.944787 -45.641981 218.302586 -2.654503 -1.527697 1.513024 126.145029 -4.140668 137.193215 -2.018837 -1.151984 1.108069 -0.000004 -0.000003 0.000000 -9.108295 -0.517849 2.260399 169.453045 7.979647 -74.610439 -3.699716 0.000318 0.001732 171.170114 -8.297029 86.418019 -2.849560 0.000017 -0.000323 378.617275 -107.820683 385.344629 -2.772171 -0.000001 -0.000017 -0.000000 -0.000002 -0.000000 -9.532540 0.000045 0.000517 165.519020 5.772878 -44.392207 -3.699616 -0.000034 0.004200 182.486986 -22.905707 191.802668 -2.949669 -0.000160 -0.001829 252.311341 -59.459044 283.972218 -2.946625 0.000003 -0.000165 0.000004 0.000001 0.000000 -9.103642 -0.042882 -1.864605 162.648948 2.917273 -18.682461 -3.378912 -0.000166 -0.000655 201.626091 -35.236785 -117.897562 -2.889402 -0.000219 0.000573 264.285482 -50.468176 -54.960316 -2.638809 -0.000015 0.000945 -0.000000 -0.000000 0.000000 -8.076658 -0.486453 -3.805762 157.520090 -0.901488 5.113868 -3.599671 -0.000191 -0.003284 193.349692 -26.808002 230.753488 -2.099654 -0.000282 -0.005443 232.545156 -41.409589 -75.343188 -2.115766 -0.000055 -0.003673 -0.000001 -0.000000 -0.000004 4.570446 11.014691 -2.160851 -0.000018 0.000010 -0.000021 10.592473 -0.524572 -2.232355 37.588276 -59.392538 21.967154 27.841782 -0.000067 -0.000098 32.549126 -107.930369 43.731854 28.328842 -0.000028 0.000020 0.000020 -0.000089 -0.000001 2.465829 -1.575917 2.681792 -59.323144 190.546049 70.505099 3.217455 -1.871820 1.916555 308.423121 192.959456 405.034480 2.656120 -1.528752 1.514562 158.900089 -12.098869 85.963402 2.020894 -1.154058 1.115147 0.000003 0.000001 0.000004 9.109444 -0.517888 2.259827 123.592437 -32.291215 56.699340 3.700069 0.000083 -0.000411 84.065374 -38.092686 34.591104 2.850060 0.000125 0.000243 77.487834 -27.582985 22.283991 2.774878 -0.000011 -0.000035 -0.000001 -0.000004 0.000001 9.533428 0.000049 0.000101 163.840775 -31.651749 126.766166 3.700109 0.000087 -0.000242 130.034863 -37.282618 71.803620 2.950127 0.000134 -0.000105 122.193150 -31.358385 53.903843 2.952852 -0.000047 0.000065 0.000001 -0.000000 0.000002 9.104332 -0.042941 -1.864928 197.939483 -36.387464 231.308345 3.149831 0.000000 0.000176 171.858064 -42.684752 159.358121 2.949786 -0.000059 0.000170 169.420329 -33.549722 145.856805 2.644325 0.000030 0.000072 -0.000001 -0.000001 -0.000000 8.077643 -0.486726 -3.806026 73.942187 -134.905102 -237.741782 3.599821 0.000241 0.015001 253.251776 -27.482040 -36.637268 2.099900 0.000287 0.007985 241.961473 -21.662958 -35.673129 2.125504 -0.000016 0.007511 0.000003 0.000000 -0.000000 -8.207786 -6.751667 -1.599560 -0.077001 -0.000003 0.000080 -0.000002 -44.370110 0.345938 0.153719 -0.000000 -0.000000 0.000000 -44.423679 -3.043532 -0.076700 0.000000 -0.000002 -0.000006 -8.728667 10.710559 -0.000009 -0.000000 -0.000000 -0.000001 -0.000679 9.278123 0.000000 -0.000000 -0.000000 8.207792 -6.751710 -1.599556 -0.074518 -0.000003 0.000081 -0.000002 -44.370014 0.346960 0.148822 0.000002 0.000000 -0.000001 -44.423664 -3.044403 -0.074314 0.000000 -0.000002 -0.000004 -8.728671 10.710558 0.000007 -0.000000 -0.000000 0.000000 -0.000680 9.278137 -0.000000 0.000000 -0.000001 
0.000006 104.270477 1.554256 0.000010 0.000003 -0.000113 -0.000005 10.181587 0.131522 0.000001 -0.000003 0.000084 -0.000000 9.893967 -1.470711 0.000001 0.000000 -0.000000 -0.000000 9.220802 -1.370642 0.000000 -0.000000 -0.000000 0.000001 16.740433 -2.049030 0.000000 -0.000000 -0.000000 0.000000 9.617859 1.685014 0.000000 0.000000 0.000000 0.000002 22.037384 7.501101 0.000000 -0.000000 0.000000 -4.569968 11.014880 -2.160881 0.000008 0.000001 -0.000038 -10.592802 -0.524842 -2.231769 70.478441 60.083644 -44.445526 -27.841454 0.000013 0.000615 205.465382 70.466372 -215.481499 -28.328829 0.000020 0.000024 -0.000325 -0.000044 0.000007 -2.464509 -1.574202 2.682152 70.296157 -124.418016 122.884146 -3.214761 -1.872881 1.924725 172.771985 -45.488964 228.021112 -2.654456 -1.527757 1.513045 129.967845 -12.348611 152.887487 -2.018827 -1.151998 1.108063 -0.000003 0.000003 0.000005 -9.108249 -0.517900 2.260401 171.480983 9.636485 -97.545292 -3.699907 0.000302 0.001758 170.500141 -3.528573 40.799640 -2.849555 0.000062 -0.000317 353.969008 -107.279978 351.813099 -2.772167 -0.000018 -0.000030 0.000001 -0.000001 -0.000001 -9.532545 0.000026 0.000530 166.887886 7.081503 -57.795319 -3.699646 -0.000071 0.004199 184.748462 -18.553811 207.914264 -2.949683 -0.000182 -0.001769 246.013770 -54.773688 282.842423 -2.946624 0.000002 -0.000162 -0.000000 -0.000003 -0.000000 -9.103654 -0.042886 -1.864604 162.394824 4.015842 -25.243836 -3.379015 -0.000204 -0.000613 204.273732 -30.581182 -103.561568 -2.889444 -0.000246 0.000590 263.646641 -44.437552 -49.008953 -2.638803 -0.000015 0.000940 0.000002 -0.000000 0.000000 -8.076665 -0.486445 -3.805769 157.612393 0.439583 -1.601077 -3.599750 -0.000221 -0.003251 194.518556 -21.982995 244.666255 -2.099722 -0.000282 -0.005423 231.778344 -34.704464 -66.042882 -2.115770 -0.000054 -0.003678 0.000004 -0.000002 -0.000002 4.570446 11.014691 -2.160851 -0.000018 0.000010 -0.000021 10.592475 -0.524563 -2.232352 38.269577 -60.172321 22.731706 27.841780 -0.000044 -0.000095 33.375682 -108.348322 45.102840 28.328833 -0.000028 0.000022 0.000023 -0.000089 -0.000001 2.465827 -1.575992 2.681769 -64.540493 176.384731 64.736512 3.217467 -1.871847 1.916507 304.174388 181.202760 408.577299 2.655998 -1.528431 1.514425 157.661680 -32.146347 -5.079855 2.020887 -1.154068 1.115147 0.000002 0.000003 0.000004 9.109430 -0.517789 2.259806 128.786768 -18.100064 36.741842 3.700111 0.000180 -0.000432 110.691057 -24.500196 34.901129 2.850072 0.000201 0.000242 103.042522 -19.323626 24.177644 2.774887 -0.000015 -0.000025 0.000001 0.000002 0.000000 9.533525 0.000264 0.000013 148.402225 -13.753979 46.140646 3.700133 0.000212 -0.000271 140.126317 -17.291925 45.480000 2.950126 0.000225 -0.000128 136.259760 -16.746773 40.284107 2.952866 -0.000015 0.000082 -0.000001 0.000000 -0.000000 9.104683 -0.042923 -1.865059 163.968458 -15.862732 89.396685 3.150088 0.000134 0.000056 155.010310 -19.340352 75.123987 2.950052 0.000080 0.000071 155.786684 -17.573728 71.561873 2.644342 0.000028 0.000066 0.000001 -0.000002 0.000003 8.077612 -0.486874 -3.806151 4.923194 -150.763039 -339.824150 3.599695 0.000059 0.014830 183.018143 -16.408187 -157.039108 2.099749 0.000027 0.007796 180.072910 -13.454790 -176.067810 2.125508 -0.000017 0.007513 -0.000000 0.000001 0.000001 -8.207786 -6.751667 -1.599560 -0.077001 -0.000003 0.000080 -0.000002 -44.370110 0.345938 0.153719 -0.000000 -0.000000 0.000000 -44.423679 -3.043532 -0.076700 0.000000 -0.000002 -0.000006 -8.728667 10.710559 -0.000009 -0.000000 -0.000000 -0.000001 -0.000679 9.278123 0.000000 -0.000000 -0.000000 8.207792 -6.751710 -1.599556 -0.074518 -0.000003 0.000081 -0.000002 -44.370014 0.346960 0.148822 0.000002 0.000000 -0.000001 -44.423664 -3.044403 -0.074314 0.000000 -0.000002 -0.000004 -8.728671 10.710558 0.000007 -0.000000 -0.000000 0.000000 -0.000680 9.278137 -0.000000 0.000000 -0.000001 
